<svg width="18" height="19" viewBox="0 0 18 19" fill="none" xmlns="http://www.w3.org/2000/svg">
<g clip-path="url(#clip0_8_2219)">
<path d="M1.43438 8.34448H2.27813C2.44688 8.34448 2.55938 8.23198 2.5875 8.1476L2.98125 7.16323H5.90625L6.27188 8.1476C6.32813 8.31635 6.46875 8.34448 6.58125 8.34448H7.45313C7.7625 8.31635 7.875 8.09135 7.7625 7.86635L5.42813 2.26948C5.37188 2.10073 5.31563 2.0726 5.14688 2.0726H3.88125C3.76875 2.0726 3.6 2.12885 3.57188 2.26948L1.15313 7.9226C1.04063 8.11948 1.20938 8.34448 1.43438 8.34448ZM4.47188 3.81635L5.31563 6.0101H3.6L4.47188 3.81635Z" fill="#F4F4F4"/>
<path d="M10.125 3.33823H16.875C17.2125 3.33823 17.5219 3.05698 17.5219 2.69135C17.5219 2.32573 17.2406 2.04448 16.875 2.04448H10.125C9.7875 2.04448 9.47813 2.32573 9.47813 2.69135C9.47813 3.05698 9.75938 3.33823 10.125 3.33823Z" fill="#F4F4F4"/>
<path d="M16.875 7.05074H10.125C9.7875 7.05074 9.47813 7.33199 9.47813 7.69761C9.47813 8.06324 9.75938 8.34449 10.125 8.34449H16.875C17.2125 8.34449 17.5219 8.06324 17.5219 7.69761C17.5219 7.33199 17.2125 7.05074 16.875 7.05074Z" fill="#F4F4F4"/>
<path d="M16.875 12.0007H1.77187C1.43438 12.0007 1.125 12.282 1.125 12.6476C1.125 13.0132 1.40625 13.2945 1.77187 13.2945H16.875C17.2125 13.2945 17.5219 13.0132 17.5219 12.6476C17.5219 12.282 17.2125 12.0007 16.875 12.0007Z" fill="#F4F4F4"/>
<path d="M16.875 16.9507H1.77187C1.43438 16.9507 1.125 17.232 1.125 17.5976C1.125 17.9632 1.40625 18.2445 1.77187 18.2445H16.875C17.2125 18.2445 17.5219 17.9632 17.5219 17.5976C17.5219 17.232 17.2125 16.9507 16.875 16.9507Z" fill="#F4F4F4"/>
</g>
<defs>
<clipPath id="clip0_8_2219">
<rect width="18" height="18" fill="white" transform="translate(0 0.835098)"/>
</clipPath>
</defs>
</svg>
