<svg width="18" height="17" viewBox="0 0 18 17" fill="none" xmlns="http://www.w3.org/2000/svg">
<path d="M2.98125 0.328476H1.20938C0.5625 0.328476 0 0.868519 0 1.55068V3.34135C0 3.99509 0.534375 4.56355 1.20938 4.56355H2.98125C3.62813 4.56355 4.19063 4.02351 4.19063 3.34135V1.52226C4.1625 0.868519 3.62813 0.328476 2.98125 0.328476ZM2.89688 3.25608H1.29375V1.60753H2.89688V3.25608Z" fill="#9D9D9D"/>
<path d="M6.75 3.08553H16.3969C16.7344 3.08553 17.0438 2.8013 17.0438 2.4318C17.0438 2.06229 16.7625 1.77806 16.3969 1.77806H6.75C6.4125 1.77806 6.10313 2.06229 6.10313 2.4318C6.10313 2.8013 6.4125 3.08553 6.75 3.08553Z" fill="#9D9D9D"/>
<path d="M2.98125 6.15526H1.20938C0.5625 6.15526 0 6.6953 0 7.37746V9.16813C0 9.82187 0.534375 10.3903 1.20938 10.3903H2.98125C3.62813 10.3903 4.19063 9.85029 4.19063 9.16813V7.37746C4.1625 6.6953 3.62813 6.15526 2.98125 6.15526ZM2.89688 9.08286H1.29375V7.43431H2.89688V9.08286Z" fill="#9D9D9D"/>
<path d="M16.3969 7.63327H6.75C6.4125 7.63327 6.10313 7.9175 6.10313 8.28701C6.10313 8.65651 6.38438 8.91232 6.75 8.91232H16.3969C16.7344 8.91232 17.0438 8.62809 17.0438 8.28701C17.0438 7.94593 16.7344 7.63327 16.3969 7.63327Z" fill="#9D9D9D"/>
<path d="M2.98125 12.3231H1.20938C0.5625 12.3231 0 12.8632 0 13.5453V15.336C0 15.9897 0.534375 16.5582 1.20938 16.5582H2.98125C3.62813 16.5582 4.19063 16.0182 4.19063 15.336V13.5453C4.1625 12.8632 3.62813 12.3231 2.98125 12.3231ZM2.89688 15.2507H1.29375V13.6022H2.89688V15.2507Z" fill="#9D9D9D"/>
<path d="M16.3969 13.7727H6.75C6.4125 13.7727 6.10313 14.057 6.10313 14.4265C6.10313 14.796 6.38438 15.0802 6.75 15.0802H16.3969C16.7344 15.0802 17.0438 14.796 17.0438 14.4265C17.0438 14.057 16.7344 13.7727 16.3969 13.7727Z" fill="#9D9D9D"/>
</svg>
