<svg width="43" height="44" viewBox="0 0 43 44" fill="none" xmlns="http://www.w3.org/2000/svg">
<path d="M21.08 2C17.44 2 14.5 4.90426 14.5 8.5C14.5 12.0681 17.44 14.9723 21.052 15C20.156 14.9723 19.456 14.2532 19.456 13.3681C19.456 12.483 20.184 11.7362 21.108 11.7362C25.028 11.7362 33.736 11.7362 37.572 11.7362C40.288 11.7362 42.5 9.55108 42.5 6.86812C42.5 4.1851 40.288 2 37.572 2L21.08 2Z" fill="white"/>
<path opacity="0.9" d="M13.08 15C9.44 15 6.5 17.9043 6.5 21.5C6.5 25.0681 9.44 27.9723 13.052 28C12.156 27.9723 11.456 27.2532 11.456 26.3681C11.456 25.483 12.184 24.7362 13.108 24.7362C17.028 24.7362 25.736 24.7362 29.572 24.7362C32.288 24.7362 34.5 22.5511 34.5 19.8681C34.5 17.1851 32.288 15 29.572 15L13.08 15Z" fill="white"/>
<path opacity="0.8" d="M7.55 28C3.65 28 0.5 31.1277 0.5 35C0.5 38.8426 3.65 41.9702 7.51998 42C6.55999 41.9702 5.81 41.1958 5.81 40.2425C5.81 39.2894 6.59002 38.4851 7.58003 38.4851C11.78 38.4851 21.11 38.4851 25.22 38.4851C28.13 38.4851 30.5 36.1319 30.5 33.2426C30.5 30.3532 28.13 28 25.22 28L7.55 28Z" fill="white"/>
</svg>
